<?xml version="1.0" encoding="UTF-8"?>
<svg width="26px" height="32px" viewBox="0 0 26 32" version="1.1" xmlns="http://www.w3.org/2000/svg" xmlns:xlink="http://www.w3.org/1999/xlink">
    <!-- Generator: Sketch 46.2 (44496) - http://www.bohemiancoding.com/sketch -->
    <title>airdrop</title>
    <desc>Created with Sketch.</desc>
    <defs>
        <linearGradient x1="-55.8102843%" y1="45.9846873%" x2="128.291128%" y2="53.4584522%" id="linearGradient-1">
            <stop stop-color="#3023AE" offset="0%"></stop>
            <stop stop-color="#53A0FD" offset="47.5247532%"></stop>
            <stop stop-color="#B4EC51" offset="100%"></stop>
        </linearGradient>
        <linearGradient x1="0%" y1="36.5172278%" x2="148.088293%" y2="92.4403221%" id="linearGradient-2">
            <stop stop-color="#41FAA4" offset="0%"></stop>
            <stop stop-color="#53A0FD" offset="27.8894398%"></stop>
            <stop stop-color="#A9E365" offset="79.2012552%"></stop>
            <stop stop-color="#B4EC51" offset="100%"></stop>
        </linearGradient>
        <linearGradient x1="-3.52526398%" y1="38.509272%" x2="111.382925%" y2="73.7342431%" id="linearGradient-3">
            <stop stop-color="#41FAA4" offset="0%"></stop>
            <stop stop-color="#53A0FD" offset="51.4768017%"></stop>
            <stop stop-color="#A9E365" offset="100%"></stop>
            <stop stop-color="#B4EC51" offset="100%"></stop>
        </linearGradient>
    </defs>
    <g id="Page-1" stroke="none" stroke-width="1" fill="none" fill-rule="evenodd">
        <g id="airdrop" fill-rule="nonzero">
            <g id="Group" transform="translate(13.000000, 16.000000) scale(-1, 1) rotate(-180.000000) translate(-13.000000, -16.000000) ">
                <path d="M12.2715428,31.8827467 C10.5811617,31.3231915 9.30818012,28.6811754 8.57972289,24.2401184 C8.3039968,22.5402918 8.04940048,19.9194368 8.04940048,18.7226201 L8.04940048,18.2057341 L10.2417,18.2057341 L12.4339995,18.2057341 L12.4339995,15.1245383 L12.4339995,12.0433425 L13.1766587,12.0433425 L13.9193179,12.0433425 L13.9193179,15.1245383 L13.9193179,18.2057341 L16.1611511,18.2057341 L18.3960565,18.2057341 L18.353797,19.3956127 C18.325393,20.0470972 18.2405276,21.2015917 18.1629363,21.9595756 C17.7528111,25.9614529 17.0028777,28.7096215 15.8642952,30.4306091 C15.4188383,31.0963167 14.9803091,31.5143353 14.4569145,31.7693093 C13.940794,32.0173452 12.8586731,32.0811754 12.2715428,31.8827467 Z" id="Shape" fill="url(#linearGradient-1)"></path>
                <path d="M8.89805489,12.0076115 L7.76640021,11.9722273 C6.64894751,11.9368432 6.63474554,11.9368432 6.44388489,11.7384144 L6.24575007,11.5472707 L6.2246203,5.10180594 C6.20349054,0.0117947148 6.18928857,0.358698092 6.63474554,0.125232119 C6.94580336,-0.0378124681 19.4993072,-0.0378124681 19.810365,0.125232119 C20.2630962,0.359044995 20.142899,-0.0943577186 20.142899,4.98143047 C20.142899,11.8449138 20.1498268,11.7103153 19.810365,11.873013 C19.7397016,11.9083971 19.216307,11.9510662 18.6433786,11.9722273 L17.6038636,12.0076115 C16.0896859,11.9979766 15.3047672,11.9909229 15.2491074,11.9864504 L15.0367706,11.9652893 L15.1922995,11.8518519 C15.5317613,11.6111009 15.5459632,11.4907254 15.5459632,8.1122334 C15.5459632,4.72645648 15.5317613,4.61336598 15.1853717,4.36533007 C15.0440448,4.2661157 14.7610445,4.25189266 13.1555289,4.25189266 L11.2884892,4.25189266 L11.0834266,4.45725946 L10.878364,4.66262626 L10.878364,8.1122334 L10.878364,11.5614937 L11.0834266,11.7599225 C11.2673594,11.9510662 11.2742872,11.9652893 11.1471623,11.9864504 C11.0952038,11.9959324 10.3455014,12.0029861 8.89805489,12.0076115 Z" id="Shape" fill="url(#linearGradient-2)"></path>
                <path d="M8.65038636,31.1389858 C5.4819611,29.8287318 2.92872369,27.4132435 1.33048228,24.2120192 C0.580895284,22.6963983 0.206101785,21.3857974 0.0502264855,19.7709621 C-0.0204369837,19.0414243 -0.0135091926,18.9068258 0.0855582201,18.6941741 C0.283693046,18.2761555 0.382760458,18.2480563 1.79014122,18.2053872 L3.07039702,18.1700031 L5.98422595,15.0888073 L8.89805489,12.0076115 L9.27284839,11.9864504 C8.52787992,11.962861 11.304885,11.9699147 17.6038636,12.0076115 L20.6098321,15.0888073 L23.6227285,18.1700031 L24.5493205,18.2053872 C25.5819078,18.2480563 25.7305089,18.2973166 25.9144418,18.6941741 C26.0135092,18.9068258 26.020437,19.0410774 25.9497735,19.7848383 C25.8011724,21.3715743 25.4475087,22.6037751 24.7121236,24.1197429 C23.2763389,27.0875013 20.9423661,29.4322212 18.0569411,30.8274666 C17.6679456,31.0116723 17.3284839,31.1674319 17.2931521,31.1674319 C17.2647482,31.1674319 17.3284839,31.0328334 17.4344791,30.8697888 C17.9367439,30.0694827 18.5519318,28.4473625 18.9267253,26.9175186 C19.4785238,24.6935211 19.7611777,22.5687379 19.9735145,18.9703092 L20.0161204,18.2123253 L20.7445777,18.1911642 L21.4799627,18.1700031 L18.4670663,15.0888073 C15.9848388,12.5460055 15.4261124,12.0006734 15.2491074,11.9864504 L11.0834266,11.9864504 C10.1546407,12.926096 9.15750066,13.960215 8.09200639,15.0888073 L5.17090328,18.1700031 L5.81449507,18.2053872 L6.45808686,18.2407713 L6.50762057,19.444873 C6.65622169,23.0856239 7.2925393,26.7756351 8.15539568,29.0492399 C8.4169198,29.7361086 8.96871836,30.8694419 9.19491074,31.181308 C9.26557421,31.2947454 9.30818012,31.3797368 9.27284839,31.3797368 C9.24444444,31.3727987 8.96179057,31.2666463 8.65038636,31.1389858 Z" id="Shape" fill="url(#linearGradient-3)"></path>
            </g>
        </g>
    </g>
</svg>