<?xml version="1.0" encoding="UTF-8"?>
<svg width="169px" height="45px" viewBox="0 0 169 45" version="1.1" xmlns="http://www.w3.org/2000/svg" xmlns:xlink="http://www.w3.org/1999/xlink">
    <!-- Generator: Sketch 46.2 (44496) - http://www.bohemiancoding.com/sketch -->
    <title>logo</title>
    <desc>Created with Sketch.</desc>
    <defs>
        <linearGradient x1="49.8712062%" y1="-0.00203160271%" x2="49.8712062%" y2="100.039503%" id="linearGradient-1">
            <stop stop-color="#24B0E6" offset="0%"></stop>
            <stop stop-color="#23B2C5" offset="37.27%"></stop>
            <stop stop-color="#21B686" offset="100%"></stop>
        </linearGradient>
    </defs>
    <g id="Page-1" stroke="none" stroke-width="1" fill="none" fill-rule="evenodd">
        <g id="logo" fill-rule="nonzero">
            <polygon id="Shape" fill="#1641B5" points="39 39.9 36 39.9 36 13.1 39 13.1 39 25.5 43.4 25.3 50.2 13 53.6 13 45.9 26.5 54 39.8 50.5 39.8 43.4 28 39 28.2"></polygon>
            <path d="M71,26.3 L71,36.2 C71.1,37.2 71.8,37.7 73.2,37.9 L73.1,40.2 C71.1,40.2 69.5,39.7 68.5,38.7 C66.2,39.7 63.9,40.2 61.5,40.2 C59.7,40.2 58.4,39.7 57.4,38.7 C56.5,37.7 56,36.3 56,34.4 C56,32.5 56.5,31.1 57.4,30.2 C58.4,29.3 59.8,28.8 61.9,28.6 L68,28 L68,26.3 C68,25 67.7,24 67.2,23.5 C66.7,23 65.9,22.7 64.9,22.7 C62.8,22.7 60.7,22.8 58.5,23.1 L57.3,23.1 L57.2,20.9 C60,20.3 62.5,20 64.7,20 C66.9,20 68.5,20.5 69.5,21.5 C70.5,22.6 71,24.2 71,26.3 Z M59.1,34.2 C59.1,36.6 60.1,37.8 62,37.8 C63.8,37.8 65.5,37.5 67.2,36.9 L68.1,36.6 L68.1,30.2 L62.4,30.7 C61.2,30.8 60.4,31.1 59.9,31.7 C59.3,32.3 59.1,33.1 59.1,34.2 Z" id="Shape" fill="#1641B5"></path>
            <path d="M76,39.8 L76,20.5 L78.9,20.5 L78.9,23.1 C81.1,21.6 83.5,20.5 86,20 L86,22.9 C84.9,23.1 83.8,23.4 82.6,23.9 C81.4,24.3 80.5,24.7 79.9,25.1 L78.9,25.6 L78.9,39.8 L76,39.8 Z" id="Shape" fill="#1641B5"></path>
            <path d="M96.5,20.1 C99.1,20.1 100.9,20.8 102,22.3 C103,23.8 103.6,26.4 103.6,30.1 C103.6,33.8 102.9,36.4 101.6,37.9 C100.3,39.4 97.9,40.2 94.4,40.2 C93.3,40.2 91.5,40.1 89,39.9 L88,39.7 L88,12 L90.9,12 L90.9,21.4 C92.8,20.5 94.7,20.1 96.5,20.1 Z M94.4,37.6 C96.9,37.6 98.6,37 99.4,35.9 C100.2,34.8 100.6,32.8 100.6,30.1 C100.6,27.4 100.3,25.5 99.6,24.4 C99,23.3 97.8,22.8 96.2,22.8 C94.7,22.8 93.2,23.1 91.6,23.6 L90.8,23.9 L90.8,37.5 C92.5,37.5 93.7,37.6 94.4,37.6 Z" id="Shape" fill="#1641B5"></path>
            <path d="M106,30.1 C106,26.6 106.6,24 107.9,22.4 C109.2,20.8 111.3,20 114.3,20 C117.3,20 119.4,20.8 120.7,22.4 C122,24 122.6,26.5 122.6,30.1 C122.6,33.6 122,36.2 120.8,37.8 C119.6,39.4 117.5,40.2 114.3,40.2 C111.2,40.2 109,39.4 107.8,37.8 C106.6,36.2 106,33.6 106,30.1 Z M109,30 C109,32.8 109.3,34.8 110,35.9 C110.7,37 112.1,37.6 114.3,37.6 C116.5,37.6 117.9,37 118.6,35.9 C119.3,34.8 119.6,32.8 119.6,30 C119.6,27.2 119.2,25.2 118.5,24.1 C117.8,23 116.4,22.5 114.3,22.5 C112.3,22.5 110.9,23 110.1,24.1 C109.3,25.2 109,27.2 109,30 Z" id="Shape" fill="#1641B5"></path>
            <path d="M127.9,39.6 L125,39.6 L125,20.3 L127.9,20.3 L127.9,21.7 C130,20.5 132,20 133.9,20 C136.5,20 138.2,20.7 139.1,22.1 C140,23.5 140.4,26 140.4,29.5 L140.4,39.7 L137.5,39.7 L137.5,29.5 C137.5,26.8 137.2,25 136.7,24 C136.2,23 135,22.5 133.3,22.5 C132.5,22.5 131.6,22.6 130.7,22.9 C129.8,23.1 129.1,23.4 128.6,23.6 L127.9,23.9 L127.9,39.6 L127.9,39.6 Z" id="Shape" fill="#1641B5"></path>
            <polygon id="Shape" fill="#1641B5" points="151.8 20 151.8 40.4 149.4 40.4 149.4 22.6 144.1 26.1 143 24.3 149.5 20"></polygon>
            <polygon id="Shape" fill="#1641B5" points="163.9 40.4 163.9 36.4 154 36.4 154 34.5 159.8 20 162.4 20 156.5 34.3 163.9 34.3 163.9 27.9 166.3 27.9 166.3 34.3 168.9 34.3 168.9 36.4 166.3 36.4 166.3 40.4"></polygon>
            <path d="M12.1,44.5 L0.2,31.4 L12.9,0.2 L25.9,31.4 L13.9,44.5 L13.9,37 L20.4,30.7 C20.7,30.4 20.7,29.9 20.4,29.6 C20.1,29.3 19.6,29.3 19.3,29.6 L13.9,34.8 L13.9,29 L20.4,22.7 C20.7,22.4 20.7,21.9 20.4,21.6 C20.1,21.3 19.6,21.3 19.3,21.6 L13.9,26.8 L13.9,12 C13.9,11.6 13.5,11.2 13.1,11.2 C12.7,11.2 12.3,11.6 12.3,12 L12.3,26.8 L6.9,21.6 C6.6,21.3 6.1,21.3 5.8,21.6 C5.5,21.9 5.5,22.4 5.8,22.7 L12.3,29 L12.3,34.8 L6.9,29.6 C6.6,29.3 6.1,29.3 5.8,29.6 C5.5,29.9 5.5,30.4 5.8,30.7 L12.3,37" id="Shape" fill="url(#linearGradient-1)"></path>
        </g>
    </g>
</svg>