<?xml version="1.0" encoding="UTF-8"?>
<svg width="38px" height="64px" viewBox="0 0 38 64" version="1.1" xmlns="http://www.w3.org/2000/svg" xmlns:xlink="http://www.w3.org/1999/xlink">
    <!-- Generator: Sketch 46.2 (44496) - http://www.bohemiancoding.com/sketch -->
    <title>Chart-Logo</title>
    <desc>Created with Sketch.</desc>
    <defs>
        <linearGradient x1="49.8712062%" y1="-0.00203160271%" x2="49.8712062%" y2="100.039503%" id="linearGradient-1">
            <stop stop-color="#24B0E6" offset="0%"></stop>
            <stop stop-color="#23B2C5" offset="37.27%"></stop>
            <stop stop-color="#21B686" offset="100%"></stop>
        </linearGradient>
    </defs>
    <g id="Page-1" stroke="none" stroke-width="1" fill="none" fill-rule="evenodd">
        <g id="Chart-Logo" fill-rule="nonzero" fill="url(#linearGradient-1)">
            <path d="M17.1888889,63.9888889 L0,45.0666667 L18.3444444,0 L37.1222222,45.0666667 L19.7888889,63.9888889 L19.7888889,53.1555556 L29.1777778,44.0555556 C29.6111111,43.6222222 29.6111111,42.9 29.1777778,42.4666667 C28.7444444,42.0333333 28.0222222,42.0333333 27.5888889,42.4666667 L19.7888889,49.9777778 L19.7888889,41.6 L29.1777778,32.5 C29.6111111,32.0666667 29.6111111,31.3444444 29.1777778,30.9111111 C28.7444444,30.4777778 28.0222222,30.4777778 27.5888889,30.9111111 L19.7888889,38.4222222 L19.7888889,17.0444444 C19.7888889,16.4666667 19.2111111,15.8888889 18.6333333,15.8888889 C18.0555556,15.8888889 17.4777778,16.4666667 17.4777778,17.0444444 L17.4777778,38.4222222 L9.67777778,30.9111111 C9.24444444,30.4777778 8.52222222,30.4777778 8.08888889,30.9111111 C7.65555556,31.3444444 7.65555556,32.0666667 8.08888889,32.5 L17.4777778,41.6 L17.4777778,49.9777778 L9.67777778,42.4666667 C9.24444444,42.0333333 8.52222222,42.0333333 8.08888889,42.4666667 C7.65555556,42.9 7.65555556,43.6222222 8.08888889,44.0555556 L17.4777778,53.1555556" id="Shape"></path>
        </g>
    </g>
</svg>